<svg xmlns="http://www.w3.org/2000/svg" width="80" height="80" viewBox="0 0 80 80" fill="none">
  <!-- Portale -->
  <path d="M10 62 L10 36 Q10 16 40 16 Q70 16 70 36 L70 62" stroke="#3d2b1a" stroke-width="3.5" stroke-linecap="round" fill="none"/>
  <!-- Tetto / tenda principale -->
  <path d="M5 38 L40 20 L75 38" stroke="#e8a045" stroke-width="3" stroke-linecap="round" stroke-linejoin="round" fill="none"/>
  <!-- Colonne -->
  <line x1="10" y1="62" x2="10" y2="52" stroke="#3d2b1a" stroke-width="3.5" stroke-linecap="round"/>
  <line x1="70" y1="62" x2="70" y2="52" stroke="#3d2b1a" stroke-width="3.5" stroke-linecap="round"/>
  <!-- Tenda 1 -->
  <path d="M18 62 L18 46 L30 46 L30 62" stroke="#3d2b1a" stroke-width="2" stroke-linecap="round" fill="none"/>
  <path d="M18 46 Q24 40 30 46" stroke="#e8a045" stroke-width="2.5" stroke-linecap="round" fill="none"/>
  <!-- Tenda 2 -->
  <path d="M34 62 L34 46 L46 46 L46 62" stroke="#3d2b1a" stroke-width="2" stroke-linecap="round" fill="none"/>
  <path d="M34 46 Q40 40 46 46" stroke="#e8a045" stroke-width="2.5" stroke-linecap="round" fill="none"/>
  <!-- Tenda 3 -->
  <path d="M50 62 L50 46 L62 46 L62 62" stroke="#3d2b1a" stroke-width="2" stroke-linecap="round" fill="none"/>
  <path d="M50 46 Q56 40 62 46" stroke="#e8a045" stroke-width="2.5" stroke-linecap="round" fill="none"/>
  <!-- Sole -->
  <circle cx="40" cy="11" r="4.5" fill="#e8a045"/>
  <!-- Raggi -->
  <line x1="40" y1="3.5" x2="40" y2="1.5" stroke="#e8a045" stroke-width="2" stroke-linecap="round"/>
  <line x1="40" y1="18.5" x2="40" y2="20.5" stroke="#e8a045" stroke-width="2" stroke-linecap="round"/>
  <line x1="32" y1="6" x2="30" y2="4.5" stroke="#e8a045" stroke-width="2" stroke-linecap="round"/>
  <line x1="48" y1="6" x2="50" y2="4.5" stroke="#e8a045" stroke-width="2" stroke-linecap="round"/>
  <line x1="32" y1="16" x2="30" y2="17.5" stroke="#e8a045" stroke-width="2" stroke-linecap="round"/>
  <line x1="48" y1="16" x2="50" y2="17.5" stroke="#e8a045" stroke-width="2" stroke-linecap="round"/>
  <line x1="27.5" y1="11" x2="25.5" y2="11" stroke="#e8a045" stroke-width="2" stroke-linecap="round"/>
  <line x1="52.5" y1="11" x2="54.5" y2="11" stroke="#e8a045" stroke-width="2" stroke-linecap="round"/>
  <!-- Base -->
  <line x1="5" y1="65" x2="75" y2="65" stroke="#3d2b1a" stroke-width="2.5" stroke-linecap="round"/>
</svg>
